<svg width="64" height="64" viewBox="0 0 64 64" fill="none" xmlns="http://www.w3.org/2000/svg">
<path d="M36 50.5H12.8428C12.4915 50.5 12.1513 50.3767 11.8816 50.1516C11.6119 49.9265 11.4298 49.6139 11.367 49.2683L6.3603 21.7317C6.29746 21.3861 6.11532 21.0735 5.84562 20.8484C5.57592 20.6233 5.23578 20.5 4.8845 20.5H1.5" stroke="#2F4F3C" stroke-width="3" stroke-linecap="round" stroke-linejoin="round"/>
<path d="M13.5 58C15.5711 58 17.25 56.3211 17.25 54.25C17.25 52.1789 15.5711 50.5 13.5 50.5C11.4289 50.5 9.75 52.1789 9.75 54.25C9.75 56.3211 11.4289 58 13.5 58Z" stroke="#2F4F3C" stroke-width="3" stroke-linecap="round" stroke-linejoin="round"/>
<path d="M36 58C38.0711 58 39.75 56.3211 39.75 54.25C39.75 52.1789 38.0711 50.5 36 50.5C33.9289 50.5 32.25 52.1789 32.25 54.25C32.25 56.3211 33.9289 58 36 58Z" stroke="#2F4F3C" stroke-width="3" stroke-linecap="round" stroke-linejoin="round"/>
<path d="M7.5 28H40.2027C40.4224 28 40.6394 28.0483 40.8384 28.1414C41.0374 28.2345 41.2135 28.3702 41.3543 28.5389C41.4951 28.7076 41.5971 28.9051 41.6531 29.1176C41.7091 29.33 41.7178 29.5522 41.6785 29.7683L39.224 43.2683C39.1611 43.6139 38.979 43.9265 38.7093 44.1516C38.4396 44.3767 38.0994 44.5 37.7481 44.5H10.5" stroke="#2F4F3C" stroke-width="3" stroke-linecap="round" stroke-linejoin="round"/>
<rect x="20" width="44" height="44" rx="22" fill="#2F4F3C"/>
<path d="M41.596 19.886C43.7667 19.886 45.3653 20.3187 46.392 21.184C47.4333 22.0493 47.954 23.208 47.954 24.66C47.954 25.5987 47.7193 26.4567 47.25 27.234C46.7807 27.9967 46.062 28.6127 45.094 29.082C44.1407 29.5367 42.96 29.764 41.552 29.764C40.4667 29.764 39.396 29.6247 38.34 29.346C37.2987 29.0527 36.4113 28.642 35.678 28.114L37.086 25.386C37.6727 25.826 38.3473 26.1707 39.11 26.42C39.8727 26.6547 40.6573 26.772 41.464 26.772C42.3587 26.772 43.0627 26.596 43.576 26.244C44.0893 25.892 44.346 25.4007 44.346 24.77C44.346 24.11 44.0747 23.6113 43.532 23.274C43.004 22.9367 42.08 22.768 40.76 22.768H36.822L37.614 14.1H47.008V16.96H40.584L40.342 19.886H41.596Z" fill="#8CC63F"/>
</svg>
