<svg width="249" height="10" viewBox="0 0 249 10" fill="none" xmlns="http://www.w3.org/2000/svg">
<path d="M0.999999 7.48114C5.58827 5.16231 7.71908 1 15.3869 1C26.0022 1 26.0022 8.99998 36.6252 8.99998C47.2482 8.99998 47.2482 1 57.8635 1C68.4787 1.00001 68.4787 8.99998 79.1017 8.99999C89.7169 8.99999 89.7169 1.00001 100.34 1.00001C110.963 1.00001 110.963 8.99999 121.578 8.99999C132.193 8.99999 132.193 1.00001 142.816 1.00001C153.439 1.00001 153.44 8.99999 164.055 8.99999C174.67 8.99999 174.67 1.00001 185.293 1.00002C195.908 1.00002 195.908 9 206.523 9C217.139 9 217.139 1.00002 227.762 1.00002C238.377 1.00002 238.377 9 249 9" stroke="#8CC63F" stroke-width="2"/>
</svg>
